<?xml version="1.0" encoding="UTF-8"?>
<svg viewBox="0 0 400 400" xmlns="http://www.w3.org/2000/svg">
<path d="m60 335h-30v20h30" fill="none" stroke="#000" stroke-linejoin="round" stroke-width="12"/>
<path d="m340 335h30v20h-30" fill="none" stroke="#000" stroke-linejoin="round" stroke-width="12"/>
<rect x="60" y="320" width="280" height="50" rx="10" fill="#2d3035" stroke="#000" stroke-width="12"/>
<rect x="160" y="330" width="80" height="30" rx="5" fill="#a4e4fc" stroke="#000" stroke-width="6"/>
<text x="200" y="348" font-family="monospace" font-size="8" font-weight="bold" text-anchor="middle">SupperMoover</text>
<circle cx="120" cy="345" r="6" fill="#ff4d4d" stroke="#000" stroke-width="4"/>
<circle cx="140" cy="345" r="6" fill="#fff" stroke="#000" stroke-width="4"/>
<circle cx="260" cy="345" r="6" fill="#fff" stroke="#000" stroke-width="4"/>
<circle cx="280" cy="345" r="6" fill="#fff" stroke="#000" stroke-width="4"/>
<path d="m120 320 20-40h120l20 40z" fill="#3f434a" stroke="#000" stroke-linejoin="round" stroke-width="12"/>
<path d="m260 110h30c20 0 20 100 0 100h-30z" fill="#b11a1d" stroke="#000" stroke-linejoin="round" stroke-width="12"/>
<rect x="120" y="60" width="160" height="210" rx="80" fill="#e52521" stroke="#000" stroke-width="12"/>
<path d="m140 280h-50l-20-140c0-40 50-40 50 0l20 140z" fill="#5a5f68" stroke="#000" stroke-linejoin="round" stroke-width="12"/>
<path d="m260 280h50l20-140c0-40-50-40-50 0l-20 140z" fill="#5a5f68" stroke="#000" stroke-linejoin="round" stroke-width="12"/>
<circle cx="120" cy="160" r="15" fill="#2d3035" stroke="#000" stroke-width="8"/>
<circle cx="280" cy="160" r="15" fill="#2d3035" stroke="#000" stroke-width="8"/>
<rect x="125" y="80" width="120" height="75" rx="37.5" fill="#9bd2e5" stroke="#000" stroke-width="12"/>
<ellipse transform="rotate(-15 155 105)" cx="155" cy="105" rx="20" ry="10" fill="#fff"/>
</svg>
